<mxfile host="app.diagrams.net" modified="2024-01-06T12:05:49.903Z" agent="Mozilla/5.0 (Windows NT 10.0; Win64; x64) AppleWebKit/537.36 (KHTML, like Gecko) Chrome/120.0.0.0 Safari/537.36 Edg/120.0.0.0" etag="Ln2Bu-vFahwt4b0yAlP5" version="22.1.17" type="github">
  <diagram id="R2lEEEUBdFMjLlhIrx00" name="Page-1">
    <mxGraphModel dx="936" dy="636" grid="1" gridSize="10" guides="1" tooltips="1" connect="1" arrows="1" fold="1" page="1" pageScale="1" pageWidth="850" pageHeight="1100" math="0" shadow="0" extFonts="Permanent Marker^https://fonts.googleapis.com/css?family=Permanent+Marker">
      <root>
        <mxCell id="0" />
        <mxCell id="1" parent="0" />
        <mxCell id="HHtx3UaV1CVex7Vy0g1h-6" value="" style="endArrow=none;html=1;rounded=0;exitX=0;exitY=0;exitDx=0;exitDy=0;entryX=0.5;entryY=1;entryDx=0;entryDy=0;" parent="1" source="HHtx3UaV1CVex7Vy0g1h-28" target="HHtx3UaV1CVex7Vy0g1h-29" edge="1">
          <mxGeometry width="50" height="50" relative="1" as="geometry">
            <mxPoint x="160" y="492" as="sourcePoint" />
            <mxPoint x="80" y="462" as="targetPoint" />
          </mxGeometry>
        </mxCell>
        <mxCell id="HHtx3UaV1CVex7Vy0g1h-12" value="" style="endArrow=none;html=1;rounded=0;exitX=0;exitY=0.5;exitDx=0;exitDy=0;entryX=1;entryY=0.5;entryDx=0;entryDy=0;" parent="1" source="HHtx3UaV1CVex7Vy0g1h-28" target="HHtx3UaV1CVex7Vy0g1h-30" edge="1">
          <mxGeometry width="50" height="50" relative="1" as="geometry">
            <mxPoint x="160" y="522" as="sourcePoint" />
            <mxPoint x="120" y="522" as="targetPoint" />
          </mxGeometry>
        </mxCell>
        <mxCell id="HHtx3UaV1CVex7Vy0g1h-21" value="" style="endArrow=none;html=1;rounded=0;entryX=0.5;entryY=0;entryDx=0;entryDy=0;exitX=1;exitY=1;exitDx=0;exitDy=0;" parent="1" source="HHtx3UaV1CVex7Vy0g1h-28" target="HHtx3UaV1CVex7Vy0g1h-36" edge="1">
          <mxGeometry width="50" height="50" relative="1" as="geometry">
            <mxPoint x="220" y="492" as="sourcePoint" />
            <mxPoint x="220" y="440" as="targetPoint" />
          </mxGeometry>
        </mxCell>
        <mxCell id="HHtx3UaV1CVex7Vy0g1h-22" value="" style="endArrow=none;html=1;rounded=0;exitX=1;exitY=0;exitDx=0;exitDy=0;entryX=0.5;entryY=1;entryDx=0;entryDy=0;" parent="1" source="HHtx3UaV1CVex7Vy0g1h-28" target="HHtx3UaV1CVex7Vy0g1h-34" edge="1">
          <mxGeometry width="50" height="50" relative="1" as="geometry">
            <mxPoint x="250" y="492" as="sourcePoint" />
            <mxPoint x="297.1091270347399" y="456.14213562373084" as="targetPoint" />
          </mxGeometry>
        </mxCell>
        <mxCell id="HHtx3UaV1CVex7Vy0g1h-23" value="" style="endArrow=none;html=1;rounded=0;exitX=0.5;exitY=0;exitDx=0;exitDy=0;entryX=0;entryY=1;entryDx=0;entryDy=0;" parent="1" source="HHtx3UaV1CVex7Vy0g1h-32" target="HHtx3UaV1CVex7Vy0g1h-28" edge="1">
          <mxGeometry width="50" height="50" relative="1" as="geometry">
            <mxPoint x="95" y="582" as="sourcePoint" />
            <mxPoint x="160" y="552" as="targetPoint" />
          </mxGeometry>
        </mxCell>
        <mxCell id="HHtx3UaV1CVex7Vy0g1h-24" value="" style="endArrow=none;html=1;rounded=0;exitX=0.75;exitY=1;exitDx=0;exitDy=0;entryX=0.5;entryY=0;entryDx=0;entryDy=0;" parent="1" source="HHtx3UaV1CVex7Vy0g1h-28" target="HHtx3UaV1CVex7Vy0g1h-33" edge="1">
          <mxGeometry width="50" height="50" relative="1" as="geometry">
            <mxPoint x="250" y="552" as="sourcePoint" />
            <mxPoint x="281" y="592" as="targetPoint" />
          </mxGeometry>
        </mxCell>
        <mxCell id="HHtx3UaV1CVex7Vy0g1h-25" value="" style="endArrow=none;html=1;rounded=0;entryX=0.5;entryY=0;entryDx=0;entryDy=0;exitX=0.25;exitY=1;exitDx=0;exitDy=0;" parent="1" source="HHtx3UaV1CVex7Vy0g1h-28" target="HHtx3UaV1CVex7Vy0g1h-35" edge="1">
          <mxGeometry width="50" height="50" relative="1" as="geometry">
            <mxPoint x="200" y="580" as="sourcePoint" />
            <mxPoint x="220" y="592" as="targetPoint" />
          </mxGeometry>
        </mxCell>
        <mxCell id="HHtx3UaV1CVex7Vy0g1h-28" value="&lt;h3 style=&quot;border-color: var(--border-color);&quot;&gt;&lt;font style=&quot;border-color: var(--border-color); font-size: 15px;&quot; face=&quot;arial&quot;&gt;Customer&lt;/font&gt;&lt;/h3&gt;" style="whiteSpace=wrap;html=1;align=center;" parent="1" vertex="1">
          <mxGeometry x="141" y="492" width="120" height="40" as="geometry" />
        </mxCell>
        <mxCell id="HHtx3UaV1CVex7Vy0g1h-29" value="&lt;font style=&quot;font-size: 14px;&quot;&gt;Customer_ID&lt;/font&gt;" style="ellipse;whiteSpace=wrap;html=1;align=center;fontStyle=4;" parent="1" vertex="1">
          <mxGeometry x="20" y="421" width="100" height="40" as="geometry" />
        </mxCell>
        <mxCell id="HHtx3UaV1CVex7Vy0g1h-30" value="&lt;font style=&quot;font-size: 14px;&quot;&gt;Name&lt;/font&gt;" style="ellipse;whiteSpace=wrap;html=1;align=center;" parent="1" vertex="1">
          <mxGeometry x="20" y="492" width="100" height="40" as="geometry" />
        </mxCell>
        <mxCell id="HHtx3UaV1CVex7Vy0g1h-32" value="&lt;font style=&quot;font-size: 14px;&quot;&gt;Email&lt;/font&gt;" style="ellipse;whiteSpace=wrap;html=1;align=center;" parent="1" vertex="1">
          <mxGeometry x="20" y="561" width="100" height="40" as="geometry" />
        </mxCell>
        <mxCell id="HHtx3UaV1CVex7Vy0g1h-33" value="&lt;font style=&quot;font-size: 14px;&quot;&gt;Gender&lt;/font&gt;" style="ellipse;whiteSpace=wrap;html=1;align=center;" parent="1" vertex="1">
          <mxGeometry x="220" y="601" width="100" height="39" as="geometry" />
        </mxCell>
        <mxCell id="HHtx3UaV1CVex7Vy0g1h-34" value="&lt;font style=&quot;font-size: 14px;&quot;&gt;DOB&lt;/font&gt;" style="ellipse;whiteSpace=wrap;html=1;align=center;" parent="1" vertex="1">
          <mxGeometry x="280" y="421" width="100" height="40" as="geometry" />
        </mxCell>
        <mxCell id="HHtx3UaV1CVex7Vy0g1h-35" value="&lt;font style=&quot;font-size: 14px;&quot;&gt;Contact_No&lt;/font&gt;" style="ellipse;whiteSpace=wrap;html=1;align=center;" parent="1" vertex="1">
          <mxGeometry x="90" y="600" width="100" height="40" as="geometry" />
        </mxCell>
        <mxCell id="HHtx3UaV1CVex7Vy0g1h-36" value="&lt;font style=&quot;font-size: 14px;&quot;&gt;Address&lt;/font&gt;" style="ellipse;whiteSpace=wrap;html=1;align=center;" parent="1" vertex="1">
          <mxGeometry x="290" y="560" width="100" height="40" as="geometry" />
        </mxCell>
        <mxCell id="HHtx3UaV1CVex7Vy0g1h-38" value="&lt;font style=&quot;font-size: 15px;&quot;&gt;Place&lt;/font&gt;" style="shape=rhombus;perimeter=rhombusPerimeter;whiteSpace=wrap;html=1;align=center;" parent="1" vertex="1">
          <mxGeometry x="365" y="450" width="120" height="60" as="geometry" />
        </mxCell>
        <mxCell id="HHtx3UaV1CVex7Vy0g1h-39" value="&lt;h3 style=&quot;border-color: var(--border-color);&quot;&gt;&lt;font style=&quot;border-color: var(--border-color); font-size: 15px;&quot; face=&quot;arial&quot;&gt;Order&lt;/font&gt;&lt;/h3&gt;" style="whiteSpace=wrap;html=1;align=center;" parent="1" vertex="1">
          <mxGeometry x="590" y="431" width="120" height="40" as="geometry" />
        </mxCell>
        <mxCell id="HHtx3UaV1CVex7Vy0g1h-40" value="" style="endArrow=none;html=1;rounded=0;exitX=1;exitY=0.5;exitDx=0;exitDy=0;entryX=0;entryY=1;entryDx=0;entryDy=0;startArrow=ERone;startFill=0;targetPerimeterSpacing=13;startSize=14;" parent="1" source="HHtx3UaV1CVex7Vy0g1h-28" target="HHtx3UaV1CVex7Vy0g1h-38" edge="1">
          <mxGeometry relative="1" as="geometry">
            <mxPoint x="350" y="472" as="sourcePoint" />
            <mxPoint x="365" y="499" as="targetPoint" />
          </mxGeometry>
        </mxCell>
        <mxCell id="HHtx3UaV1CVex7Vy0g1h-42" value="" style="endArrow=ERoneToMany;html=1;rounded=0;exitX=1;exitY=0;exitDx=0;exitDy=0;entryX=0;entryY=0.5;entryDx=0;entryDy=0;startArrow=none;startFill=0;targetPerimeterSpacing=13;endFill=0;startSize=6;endSize=14;" parent="1" source="HHtx3UaV1CVex7Vy0g1h-38" edge="1">
          <mxGeometry relative="1" as="geometry">
            <mxPoint x="486" y="450.5" as="sourcePoint" />
            <mxPoint x="590" y="450.5" as="targetPoint" />
          </mxGeometry>
        </mxCell>
        <mxCell id="HHtx3UaV1CVex7Vy0g1h-43" value="&lt;font style=&quot;font-size: 14px;&quot;&gt;Order_ID&lt;/font&gt;" style="ellipse;whiteSpace=wrap;html=1;align=center;fontStyle=4;" parent="1" vertex="1">
          <mxGeometry x="470" y="381" width="100" height="40" as="geometry" />
        </mxCell>
        <mxCell id="HHtx3UaV1CVex7Vy0g1h-44" value="" style="endArrow=none;html=1;rounded=0;exitX=1;exitY=1;exitDx=0;exitDy=0;entryX=0;entryY=0;entryDx=0;entryDy=0;" parent="1" source="HHtx3UaV1CVex7Vy0g1h-43" target="HHtx3UaV1CVex7Vy0g1h-39" edge="1">
          <mxGeometry relative="1" as="geometry">
            <mxPoint x="350" y="561" as="sourcePoint" />
            <mxPoint x="510" y="561" as="targetPoint" />
          </mxGeometry>
        </mxCell>
        <mxCell id="HHtx3UaV1CVex7Vy0g1h-47" value="" style="endArrow=none;html=1;rounded=0;exitX=0;exitY=1;exitDx=0;exitDy=0;entryX=1;entryY=0;entryDx=0;entryDy=0;" parent="1" source="HHtx3UaV1CVex7Vy0g1h-51" target="HHtx3UaV1CVex7Vy0g1h-39" edge="1">
          <mxGeometry relative="1" as="geometry">
            <mxPoint x="800" y="462" as="sourcePoint" />
            <mxPoint x="800" y="502" as="targetPoint" />
          </mxGeometry>
        </mxCell>
        <mxCell id="HHtx3UaV1CVex7Vy0g1h-49" value="" style="endArrow=none;html=1;rounded=0;exitX=0.5;exitY=1;exitDx=0;exitDy=0;entryX=0.25;entryY=0;entryDx=0;entryDy=0;" parent="1" source="HHtx3UaV1CVex7Vy0g1h-53" target="HHtx3UaV1CVex7Vy0g1h-39" edge="1">
          <mxGeometry relative="1" as="geometry">
            <mxPoint x="780" y="391" as="sourcePoint" />
            <mxPoint x="660" y="441" as="targetPoint" />
          </mxGeometry>
        </mxCell>
        <mxCell id="HHtx3UaV1CVex7Vy0g1h-51" value="&lt;font style=&quot;font-size: 14px;&quot;&gt;Order_Date&lt;/font&gt;" style="ellipse;whiteSpace=wrap;html=1;align=center;" parent="1" vertex="1">
          <mxGeometry x="740" y="360" width="100" height="40" as="geometry" />
        </mxCell>
        <mxCell id="HHtx3UaV1CVex7Vy0g1h-53" value="&lt;font style=&quot;font-size: 14px;&quot;&gt;Order_Time&lt;/font&gt;" style="ellipse;whiteSpace=wrap;html=1;align=center;" parent="1" vertex="1">
          <mxGeometry x="540" y="330" width="100" height="40" as="geometry" />
        </mxCell>
        <mxCell id="HHtx3UaV1CVex7Vy0g1h-55" value="&lt;span style=&quot;border-bottom: 1px dotted&quot;&gt;&lt;font style=&quot;font-size: 14px;&quot;&gt;Customer_ID&lt;/font&gt;&lt;/span&gt;" style="ellipse;whiteSpace=wrap;html=1;align=center;" parent="1" vertex="1">
          <mxGeometry x="740" y="500" width="100" height="40" as="geometry" />
        </mxCell>
        <mxCell id="HHtx3UaV1CVex7Vy0g1h-56" value="" style="endArrow=none;html=1;rounded=0;exitX=1;exitY=1;exitDx=0;exitDy=0;entryX=0;entryY=0;entryDx=0;entryDy=0;" parent="1" source="HHtx3UaV1CVex7Vy0g1h-39" target="HHtx3UaV1CVex7Vy0g1h-55" edge="1">
          <mxGeometry relative="1" as="geometry">
            <mxPoint x="520" y="401" as="sourcePoint" />
            <mxPoint x="600" y="441" as="targetPoint" />
          </mxGeometry>
        </mxCell>
        <mxCell id="HHtx3UaV1CVex7Vy0g1h-58" value="&lt;span style=&quot;font-size: 15px;&quot;&gt;Contain&lt;/span&gt;" style="shape=rhombus;perimeter=rhombusPerimeter;whiteSpace=wrap;html=1;align=center;" parent="1" vertex="1">
          <mxGeometry x="590" y="551" width="120" height="60" as="geometry" />
        </mxCell>
        <mxCell id="HHtx3UaV1CVex7Vy0g1h-59" value="" style="endArrow=none;html=1;rounded=0;exitX=0.5;exitY=1;exitDx=0;exitDy=0;entryX=0.5;entryY=0;entryDx=0;entryDy=0;startArrow=ERone;startFill=0;targetPerimeterSpacing=13;endSize=6;startSize=14;" parent="1" source="HHtx3UaV1CVex7Vy0g1h-39" target="HHtx3UaV1CVex7Vy0g1h-58" edge="1">
          <mxGeometry relative="1" as="geometry">
            <mxPoint x="271" y="461" as="sourcePoint" />
            <mxPoint x="375" y="461" as="targetPoint" />
          </mxGeometry>
        </mxCell>
        <mxCell id="HHtx3UaV1CVex7Vy0g1h-60" value="&lt;h3 style=&quot;border-color: var(--border-color);&quot;&gt;&lt;font style=&quot;border-color: var(--border-color); font-size: 15px;&quot; face=&quot;arial&quot;&gt;Order/Product&lt;/font&gt;&lt;/h3&gt;" style="whiteSpace=wrap;html=1;align=center;" parent="1" vertex="1">
          <mxGeometry x="590" y="691" width="120" height="40" as="geometry" />
        </mxCell>
        <mxCell id="HHtx3UaV1CVex7Vy0g1h-61" value="" style="endArrow=ERoneToMany;html=1;rounded=0;exitX=0.5;exitY=1;exitDx=0;exitDy=0;entryX=0.5;entryY=0;entryDx=0;entryDy=0;startArrow=none;startFill=0;targetPerimeterSpacing=13;endFill=0;endSize=14;" parent="1" source="HHtx3UaV1CVex7Vy0g1h-58" target="HHtx3UaV1CVex7Vy0g1h-60" edge="1">
          <mxGeometry relative="1" as="geometry">
            <mxPoint x="496" y="460.5" as="sourcePoint" />
            <mxPoint x="600" y="460.5" as="targetPoint" />
          </mxGeometry>
        </mxCell>
        <mxCell id="HHtx3UaV1CVex7Vy0g1h-62" value="&lt;font style=&quot;font-size: 14px;&quot;&gt;Order_ID&lt;/font&gt;" style="ellipse;whiteSpace=wrap;html=1;align=center;fontStyle=4;" parent="1" vertex="1">
          <mxGeometry x="730" y="621" width="100" height="40" as="geometry" />
        </mxCell>
        <mxCell id="HHtx3UaV1CVex7Vy0g1h-63" value="&lt;font style=&quot;font-size: 14px;&quot;&gt;Product_ID&lt;/font&gt;" style="ellipse;whiteSpace=wrap;html=1;align=center;fontStyle=4;" parent="1" vertex="1">
          <mxGeometry x="730" y="761" width="100" height="40" as="geometry" />
        </mxCell>
        <mxCell id="HHtx3UaV1CVex7Vy0g1h-64" value="" style="endArrow=none;html=1;rounded=0;exitX=1;exitY=1;exitDx=0;exitDy=0;entryX=0.5;entryY=0;entryDx=0;entryDy=0;" parent="1" source="HHtx3UaV1CVex7Vy0g1h-60" target="HHtx3UaV1CVex7Vy0g1h-63" edge="1">
          <mxGeometry relative="1" as="geometry">
            <mxPoint x="720" y="481" as="sourcePoint" />
            <mxPoint x="780" y="521" as="targetPoint" />
          </mxGeometry>
        </mxCell>
        <mxCell id="HHtx3UaV1CVex7Vy0g1h-65" value="" style="endArrow=none;html=1;rounded=0;exitX=1;exitY=0;exitDx=0;exitDy=0;entryX=0.5;entryY=1;entryDx=0;entryDy=0;" parent="1" source="HHtx3UaV1CVex7Vy0g1h-60" target="HHtx3UaV1CVex7Vy0g1h-62" edge="1">
          <mxGeometry relative="1" as="geometry">
            <mxPoint x="730" y="491" as="sourcePoint" />
            <mxPoint x="790" y="531" as="targetPoint" />
          </mxGeometry>
        </mxCell>
        <mxCell id="HHtx3UaV1CVex7Vy0g1h-66" value="&lt;span style=&quot;font-size: 14px;&quot;&gt;Quantity&lt;/span&gt;" style="ellipse;whiteSpace=wrap;html=1;align=center;" parent="1" vertex="1">
          <mxGeometry x="470" y="691" width="100" height="40" as="geometry" />
        </mxCell>
        <mxCell id="HHtx3UaV1CVex7Vy0g1h-67" value="" style="endArrow=none;html=1;rounded=0;exitX=1;exitY=0.5;exitDx=0;exitDy=0;entryX=0;entryY=0.5;entryDx=0;entryDy=0;" parent="1" source="HHtx3UaV1CVex7Vy0g1h-66" target="HHtx3UaV1CVex7Vy0g1h-60" edge="1">
          <mxGeometry relative="1" as="geometry">
            <mxPoint x="660" y="401" as="sourcePoint" />
            <mxPoint x="660" y="441" as="targetPoint" />
          </mxGeometry>
        </mxCell>
        <mxCell id="HHtx3UaV1CVex7Vy0g1h-68" value="&lt;span style=&quot;font-size: 15px;&quot;&gt;Contain&lt;/span&gt;" style="shape=rhombus;perimeter=rhombusPerimeter;whiteSpace=wrap;html=1;align=center;" parent="1" vertex="1">
          <mxGeometry x="590" y="821" width="120" height="60" as="geometry" />
        </mxCell>
        <mxCell id="HHtx3UaV1CVex7Vy0g1h-70" value="&lt;h3 style=&quot;border-color: var(--border-color);&quot;&gt;&lt;font style=&quot;border-color: var(--border-color); font-size: 15px;&quot; face=&quot;arial&quot;&gt;Product&lt;/font&gt;&lt;/h3&gt;" style="whiteSpace=wrap;html=1;align=center;" parent="1" vertex="1">
          <mxGeometry x="590" y="971" width="120" height="40" as="geometry" />
        </mxCell>
        <mxCell id="HHtx3UaV1CVex7Vy0g1h-71" value="" style="endArrow=none;html=1;rounded=0;exitX=0.5;exitY=0;exitDx=0;exitDy=0;entryX=0.5;entryY=1;entryDx=0;entryDy=0;startArrow=ERone;startFill=0;targetPerimeterSpacing=13;endSize=6;startSize=14;" parent="1" source="HHtx3UaV1CVex7Vy0g1h-70" target="HHtx3UaV1CVex7Vy0g1h-68" edge="1">
          <mxGeometry relative="1" as="geometry">
            <mxPoint x="660" y="481" as="sourcePoint" />
            <mxPoint x="660" y="561" as="targetPoint" />
          </mxGeometry>
        </mxCell>
        <mxCell id="HHtx3UaV1CVex7Vy0g1h-72" value="&lt;font style=&quot;font-size: 14px;&quot;&gt;Product_ID&lt;/font&gt;" style="ellipse;whiteSpace=wrap;html=1;align=center;fontStyle=4;" parent="1" vertex="1">
          <mxGeometry x="730" y="901" width="100" height="40" as="geometry" />
        </mxCell>
        <mxCell id="HHtx3UaV1CVex7Vy0g1h-73" value="" style="endArrow=none;html=1;rounded=0;exitX=1;exitY=0;exitDx=0;exitDy=0;entryX=0.5;entryY=1;entryDx=0;entryDy=0;" parent="1" source="HHtx3UaV1CVex7Vy0g1h-70" target="HHtx3UaV1CVex7Vy0g1h-72" edge="1">
          <mxGeometry relative="1" as="geometry">
            <mxPoint x="720" y="701" as="sourcePoint" />
            <mxPoint x="780" y="671" as="targetPoint" />
          </mxGeometry>
        </mxCell>
        <mxCell id="HHtx3UaV1CVex7Vy0g1h-74" value="&lt;span style=&quot;font-size: 14px;&quot;&gt;Product_Name&lt;/span&gt;" style="ellipse;whiteSpace=wrap;html=1;align=center;" parent="1" vertex="1">
          <mxGeometry x="730" y="1041" width="100" height="40" as="geometry" />
        </mxCell>
        <mxCell id="HHtx3UaV1CVex7Vy0g1h-75" value="" style="endArrow=none;html=1;rounded=0;exitX=1;exitY=1;exitDx=0;exitDy=0;entryX=0.5;entryY=0;entryDx=0;entryDy=0;" parent="1" source="HHtx3UaV1CVex7Vy0g1h-70" target="HHtx3UaV1CVex7Vy0g1h-74" edge="1">
          <mxGeometry relative="1" as="geometry">
            <mxPoint x="720" y="981" as="sourcePoint" />
            <mxPoint x="780" y="951" as="targetPoint" />
          </mxGeometry>
        </mxCell>
        <mxCell id="HHtx3UaV1CVex7Vy0g1h-76" value="&lt;span style=&quot;font-size: 14px;&quot;&gt;Total_Quantity&lt;/span&gt;" style="ellipse;whiteSpace=wrap;html=1;align=center;" parent="1" vertex="1">
          <mxGeometry x="470" y="1041" width="100" height="40" as="geometry" />
        </mxCell>
        <mxCell id="HHtx3UaV1CVex7Vy0g1h-77" value="" style="endArrow=none;html=1;rounded=0;exitX=0;exitY=1;exitDx=0;exitDy=0;entryX=0.5;entryY=0;entryDx=0;entryDy=0;" parent="1" source="HHtx3UaV1CVex7Vy0g1h-70" target="HHtx3UaV1CVex7Vy0g1h-76" edge="1">
          <mxGeometry relative="1" as="geometry">
            <mxPoint x="720" y="1021" as="sourcePoint" />
            <mxPoint x="790" y="961" as="targetPoint" />
          </mxGeometry>
        </mxCell>
        <mxCell id="HHtx3UaV1CVex7Vy0g1h-78" value="&lt;span style=&quot;font-size: 14px;&quot;&gt;Unit_Price&lt;/span&gt;" style="ellipse;whiteSpace=wrap;html=1;align=center;" parent="1" vertex="1">
          <mxGeometry x="470" y="901" width="100" height="40" as="geometry" />
        </mxCell>
        <mxCell id="HHtx3UaV1CVex7Vy0g1h-79" value="" style="endArrow=none;html=1;rounded=0;exitX=0;exitY=0;exitDx=0;exitDy=0;entryX=0.5;entryY=1;entryDx=0;entryDy=0;" parent="1" source="HHtx3UaV1CVex7Vy0g1h-70" target="HHtx3UaV1CVex7Vy0g1h-78" edge="1">
          <mxGeometry relative="1" as="geometry">
            <mxPoint x="520" y="1031" as="sourcePoint" />
            <mxPoint x="530" y="941" as="targetPoint" />
          </mxGeometry>
        </mxCell>
        <mxCell id="HHtx3UaV1CVex7Vy0g1h-81" value="&lt;span style=&quot;font-size: 15px;&quot;&gt;Belong&lt;/span&gt;" style="shape=rhombus;perimeter=rhombusPerimeter;whiteSpace=wrap;html=1;align=center;" parent="1" vertex="1">
          <mxGeometry x="365" y="961" width="120" height="60" as="geometry" />
        </mxCell>
        <mxCell id="HHtx3UaV1CVex7Vy0g1h-82" value="" style="endArrow=none;html=1;rounded=0;exitX=1;exitY=0.5;exitDx=0;exitDy=0;entryX=0;entryY=0.5;entryDx=0;entryDy=0;startArrow=ERone;startFill=0;targetPerimeterSpacing=13;endSize=6;startSize=14;" parent="1" source="HHtx3UaV1CVex7Vy0g1h-84" target="HHtx3UaV1CVex7Vy0g1h-81" edge="1">
          <mxGeometry relative="1" as="geometry">
            <mxPoint x="660" y="981" as="sourcePoint" />
            <mxPoint x="660" y="891" as="targetPoint" />
          </mxGeometry>
        </mxCell>
        <mxCell id="HHtx3UaV1CVex7Vy0g1h-83" value="" style="endArrow=none;html=1;rounded=0;exitX=0;exitY=0.5;exitDx=0;exitDy=0;entryX=1;entryY=0.5;entryDx=0;entryDy=0;startArrow=ERoneToMany;startFill=0;targetPerimeterSpacing=13;endSize=6;startSize=14;" parent="1" source="HHtx3UaV1CVex7Vy0g1h-70" target="HHtx3UaV1CVex7Vy0g1h-81" edge="1">
          <mxGeometry relative="1" as="geometry">
            <mxPoint x="670" y="991" as="sourcePoint" />
            <mxPoint x="670" y="901" as="targetPoint" />
          </mxGeometry>
        </mxCell>
        <mxCell id="HHtx3UaV1CVex7Vy0g1h-84" value="&lt;h3 style=&quot;border-color: var(--border-color);&quot;&gt;&lt;font style=&quot;border-color: var(--border-color); font-size: 15px;&quot; face=&quot;arial&quot;&gt;Category&lt;/font&gt;&lt;/h3&gt;" style="whiteSpace=wrap;html=1;align=center;" parent="1" vertex="1">
          <mxGeometry x="141" y="971" width="120" height="40" as="geometry" />
        </mxCell>
        <mxCell id="HHtx3UaV1CVex7Vy0g1h-85" value="&lt;font style=&quot;font-size: 14px;&quot;&gt;Category_ID&lt;/font&gt;" style="ellipse;whiteSpace=wrap;html=1;align=center;fontStyle=4;" parent="1" vertex="1">
          <mxGeometry x="280" y="901" width="100" height="40" as="geometry" />
        </mxCell>
        <mxCell id="HHtx3UaV1CVex7Vy0g1h-88" value="" style="endArrow=none;html=1;rounded=0;exitX=1;exitY=0;exitDx=0;exitDy=0;entryX=0.5;entryY=1;entryDx=0;entryDy=0;" parent="1" source="HHtx3UaV1CVex7Vy0g1h-84" target="HHtx3UaV1CVex7Vy0g1h-85" edge="1">
          <mxGeometry relative="1" as="geometry">
            <mxPoint x="600" y="981" as="sourcePoint" />
            <mxPoint x="530" y="951" as="targetPoint" />
          </mxGeometry>
        </mxCell>
        <mxCell id="HHtx3UaV1CVex7Vy0g1h-89" value="&lt;span style=&quot;font-size: 14px;&quot;&gt;Category_Name&lt;/span&gt;" style="ellipse;whiteSpace=wrap;html=1;align=center;" parent="1" vertex="1">
          <mxGeometry x="20" y="901" width="120" height="40" as="geometry" />
        </mxCell>
        <mxCell id="HHtx3UaV1CVex7Vy0g1h-92" value="" style="endArrow=none;html=1;rounded=0;exitX=0;exitY=0;exitDx=0;exitDy=0;entryX=0.5;entryY=1;entryDx=0;entryDy=0;" parent="1" source="HHtx3UaV1CVex7Vy0g1h-84" target="HHtx3UaV1CVex7Vy0g1h-89" edge="1">
          <mxGeometry relative="1" as="geometry">
            <mxPoint x="271" y="981" as="sourcePoint" />
            <mxPoint x="340" y="951" as="targetPoint" />
          </mxGeometry>
        </mxCell>
        <mxCell id="HHtx3UaV1CVex7Vy0g1h-93" value="&lt;span style=&quot;font-size: 14px;&quot;&gt;Description&lt;/span&gt;" style="ellipse;whiteSpace=wrap;html=1;align=center;" parent="1" vertex="1">
          <mxGeometry x="21" y="1041" width="100" height="40" as="geometry" />
        </mxCell>
        <mxCell id="HHtx3UaV1CVex7Vy0g1h-94" value="" style="endArrow=none;html=1;rounded=0;exitX=0;exitY=1;exitDx=0;exitDy=0;entryX=0.5;entryY=0;entryDx=0;entryDy=0;" parent="1" source="HHtx3UaV1CVex7Vy0g1h-84" target="HHtx3UaV1CVex7Vy0g1h-93" edge="1">
          <mxGeometry relative="1" as="geometry">
            <mxPoint x="141" y="1011" as="sourcePoint" />
            <mxPoint x="341" y="961" as="targetPoint" />
          </mxGeometry>
        </mxCell>
        <mxCell id="HHtx3UaV1CVex7Vy0g1h-95" value="&lt;h3 style=&quot;border-color: var(--border-color);&quot;&gt;&lt;font style=&quot;border-color: var(--border-color); font-size: 15px;&quot; face=&quot;arial&quot;&gt;Payment&lt;/font&gt;&lt;/h3&gt;" style="whiteSpace=wrap;html=1;align=center;" parent="1" vertex="1">
          <mxGeometry x="141" y="759" width="120" height="40" as="geometry" />
        </mxCell>
        <mxCell id="HHtx3UaV1CVex7Vy0g1h-96" value="&lt;span style=&quot;font-size: 15px;&quot;&gt;Has&lt;/span&gt;" style="shape=rhombus;perimeter=rhombusPerimeter;whiteSpace=wrap;html=1;align=center;" parent="1" vertex="1">
          <mxGeometry x="365" y="601" width="120" height="60" as="geometry" />
        </mxCell>
        <mxCell id="HHtx3UaV1CVex7Vy0g1h-97" value="" style="endArrow=none;html=1;rounded=0;exitX=0;exitY=1;exitDx=0;exitDy=0;entryX=1;entryY=0;entryDx=0;entryDy=0;startArrow=ERone;startFill=0;targetPerimeterSpacing=13;endSize=6;startSize=14;" parent="1" source="HHtx3UaV1CVex7Vy0g1h-39" target="HHtx3UaV1CVex7Vy0g1h-96" edge="1">
          <mxGeometry relative="1" as="geometry">
            <mxPoint x="660" y="481" as="sourcePoint" />
            <mxPoint x="660" y="561" as="targetPoint" />
          </mxGeometry>
        </mxCell>
        <mxCell id="HHtx3UaV1CVex7Vy0g1h-98" value="" style="endArrow=none;html=1;rounded=0;exitX=1;exitY=0;exitDx=0;exitDy=0;entryX=0;entryY=1;entryDx=0;entryDy=0;startArrow=ERone;startFill=0;targetPerimeterSpacing=13;endSize=6;startSize=14;" parent="1" source="HHtx3UaV1CVex7Vy0g1h-95" target="HHtx3UaV1CVex7Vy0g1h-96" edge="1">
          <mxGeometry relative="1" as="geometry">
            <mxPoint x="600" y="601" as="sourcePoint" />
            <mxPoint x="465" y="696" as="targetPoint" />
          </mxGeometry>
        </mxCell>
        <mxCell id="HHtx3UaV1CVex7Vy0g1h-99" value="&lt;font style=&quot;font-size: 14px;&quot;&gt;Payment_ID&lt;/font&gt;" style="ellipse;whiteSpace=wrap;html=1;align=center;fontStyle=4;" parent="1" vertex="1">
          <mxGeometry x="21" y="689" width="100" height="40" as="geometry" />
        </mxCell>
        <mxCell id="HHtx3UaV1CVex7Vy0g1h-100" value="" style="endArrow=none;html=1;rounded=0;exitX=0;exitY=0;exitDx=0;exitDy=0;entryX=0.5;entryY=1;entryDx=0;entryDy=0;" parent="1" source="HHtx3UaV1CVex7Vy0g1h-95" target="HHtx3UaV1CVex7Vy0g1h-99" edge="1">
          <mxGeometry width="50" height="50" relative="1" as="geometry">
            <mxPoint x="151" y="509" as="sourcePoint" />
            <mxPoint x="80" y="478" as="targetPoint" />
          </mxGeometry>
        </mxCell>
        <mxCell id="HHtx3UaV1CVex7Vy0g1h-101" value="&lt;span style=&quot;border-bottom: 1px dotted&quot;&gt;&lt;font style=&quot;font-size: 14px;&quot;&gt;Category_ID&lt;/font&gt;&lt;/span&gt;" style="ellipse;whiteSpace=wrap;html=1;align=center;" parent="1" vertex="1">
          <mxGeometry x="600" y="1041" width="100" height="40" as="geometry" />
        </mxCell>
        <mxCell id="HHtx3UaV1CVex7Vy0g1h-102" value="" style="endArrow=none;html=1;rounded=0;exitX=0.5;exitY=1;exitDx=0;exitDy=0;entryX=0.5;entryY=0;entryDx=0;entryDy=0;" parent="1" source="HHtx3UaV1CVex7Vy0g1h-70" target="HHtx3UaV1CVex7Vy0g1h-101" edge="1">
          <mxGeometry relative="1" as="geometry">
            <mxPoint x="580" y="1012" as="sourcePoint" />
            <mxPoint x="470" y="982" as="targetPoint" />
          </mxGeometry>
        </mxCell>
        <mxCell id="HHtx3UaV1CVex7Vy0g1h-105" value="&lt;span style=&quot;font-size: 14px;&quot;&gt;Payment_Date&lt;/span&gt;" style="ellipse;whiteSpace=wrap;html=1;align=center;" parent="1" vertex="1">
          <mxGeometry x="151" y="841" width="100" height="40" as="geometry" />
        </mxCell>
        <mxCell id="HHtx3UaV1CVex7Vy0g1h-106" value="" style="endArrow=none;html=1;rounded=0;" parent="1" edge="1">
          <mxGeometry relative="1" as="geometry">
            <mxPoint x="201" y="800" as="sourcePoint" />
            <mxPoint x="201" y="840" as="targetPoint" />
          </mxGeometry>
        </mxCell>
        <mxCell id="HHtx3UaV1CVex7Vy0g1h-107" value="" style="endArrow=none;html=1;rounded=0;exitX=0;exitY=0.5;exitDx=0;exitDy=0;entryX=1;entryY=0.5;entryDx=0;entryDy=0;" parent="1" source="HHtx3UaV1CVex7Vy0g1h-95" target="HHtx3UaV1CVex7Vy0g1h-108" edge="1">
          <mxGeometry relative="1" as="geometry">
            <mxPoint x="70" y="829" as="sourcePoint" />
            <mxPoint x="80" y="799" as="targetPoint" />
          </mxGeometry>
        </mxCell>
        <mxCell id="HHtx3UaV1CVex7Vy0g1h-108" value="&lt;span style=&quot;font-size: 14px;&quot;&gt;Total_Amount&lt;/span&gt;" style="ellipse;whiteSpace=wrap;html=1;align=center;" parent="1" vertex="1">
          <mxGeometry x="20" y="759" width="100" height="40" as="geometry" />
        </mxCell>
        <mxCell id="HHtx3UaV1CVex7Vy0g1h-122" value="&lt;span style=&quot;font-size: 14px;&quot;&gt;Status&lt;/span&gt;" style="ellipse;whiteSpace=wrap;html=1;align=center;" parent="1" vertex="1">
          <mxGeometry x="280" y="759" width="100" height="40" as="geometry" />
        </mxCell>
        <mxCell id="HHtx3UaV1CVex7Vy0g1h-123" value="" style="endArrow=none;html=1;rounded=0;exitX=0;exitY=0.5;exitDx=0;exitDy=0;entryX=1;entryY=0.5;entryDx=0;entryDy=0;" parent="1" source="HHtx3UaV1CVex7Vy0g1h-122" target="HHtx3UaV1CVex7Vy0g1h-95" edge="1">
          <mxGeometry relative="1" as="geometry">
            <mxPoint x="161" y="799" as="sourcePoint" />
            <mxPoint x="261" y="859" as="targetPoint" />
          </mxGeometry>
        </mxCell>
        <mxCell id="AiX_4-s-TuDO2tEeygY4-3" value="&lt;span style=&quot;border-bottom: 1px dotted&quot;&gt;&lt;font style=&quot;font-size: 14px;&quot;&gt;Order_ID&lt;/font&gt;&lt;/span&gt;" style="ellipse;whiteSpace=wrap;html=1;align=center;" parent="1" vertex="1">
          <mxGeometry x="20" y="829" width="100" height="40" as="geometry" />
        </mxCell>
        <mxCell id="AiX_4-s-TuDO2tEeygY4-4" value="" style="endArrow=none;html=1;rounded=0;exitX=0;exitY=1;exitDx=0;exitDy=0;entryX=0.5;entryY=0;entryDx=0;entryDy=0;" parent="1" source="HHtx3UaV1CVex7Vy0g1h-95" target="AiX_4-s-TuDO2tEeygY4-3" edge="1">
          <mxGeometry width="50" height="50" relative="1" as="geometry">
            <mxPoint x="151" y="769" as="sourcePoint" />
            <mxPoint x="81" y="739" as="targetPoint" />
          </mxGeometry>
        </mxCell>
        <mxCell id="_4BMldJwjPMDbOaGEeak-11" value="&lt;span style=&quot;border-bottom: 1px dotted&quot;&gt;&lt;font style=&quot;font-size: 14px;&quot;&gt;Method_ID&lt;/font&gt;&lt;/span&gt;" style="ellipse;whiteSpace=wrap;html=1;align=center;" parent="1" vertex="1">
          <mxGeometry x="280" y="829" width="100" height="40" as="geometry" />
        </mxCell>
        <mxCell id="_4BMldJwjPMDbOaGEeak-12" value="" style="endArrow=none;html=1;rounded=0;exitX=1;exitY=1;exitDx=0;exitDy=0;entryX=0.5;entryY=0;entryDx=0;entryDy=0;" parent="1" source="HHtx3UaV1CVex7Vy0g1h-95" target="_4BMldJwjPMDbOaGEeak-11" edge="1">
          <mxGeometry width="50" height="50" relative="1" as="geometry">
            <mxPoint x="401" y="799" as="sourcePoint" />
            <mxPoint x="341" y="739" as="targetPoint" />
          </mxGeometry>
        </mxCell>
        <mxCell id="ObYPDV4feWsiStuhIS4X-1" value="" style="endArrow=ERoneToMany;html=1;rounded=0;entryX=0.5;entryY=1;entryDx=0;entryDy=0;startArrow=none;startFill=0;targetPerimeterSpacing=13;endFill=0;endSize=14;exitX=0.5;exitY=0;exitDx=0;exitDy=0;" parent="1" source="HHtx3UaV1CVex7Vy0g1h-68" target="HHtx3UaV1CVex7Vy0g1h-60" edge="1">
          <mxGeometry relative="1" as="geometry">
            <mxPoint x="660" y="621" as="sourcePoint" />
            <mxPoint x="660" y="701" as="targetPoint" />
          </mxGeometry>
        </mxCell>
        <mxCell id="ObYPDV4feWsiStuhIS4X-2" value="&lt;h3 style=&quot;border-color: var(--border-color);&quot;&gt;&lt;font style=&quot;border-color: var(--border-color); font-size: 15px;&quot; face=&quot;arial&quot;&gt;Staff&lt;/font&gt;&lt;/h3&gt;" style="whiteSpace=wrap;html=1;align=center;" parent="1" vertex="1">
          <mxGeometry x="590" y="120" width="120" height="40" as="geometry" />
        </mxCell>
        <mxCell id="ObYPDV4feWsiStuhIS4X-3" value="&lt;font style=&quot;font-size: 15px;&quot;&gt;Deliver&lt;/font&gt;" style="shape=rhombus;perimeter=rhombusPerimeter;whiteSpace=wrap;html=1;align=center;" parent="1" vertex="1">
          <mxGeometry x="590" y="270" width="120" height="60" as="geometry" />
        </mxCell>
        <mxCell id="ObYPDV4feWsiStuhIS4X-4" value="" style="endArrow=none;html=1;rounded=0;exitX=0.5;exitY=1;exitDx=0;exitDy=0;startArrow=ERone;startFill=0;targetPerimeterSpacing=13;endSize=6;startSize=14;entryX=0.5;entryY=0;entryDx=0;entryDy=0;" parent="1" source="ObYPDV4feWsiStuhIS4X-2" target="ObYPDV4feWsiStuhIS4X-3" edge="1">
          <mxGeometry relative="1" as="geometry">
            <mxPoint x="649.5" y="180" as="sourcePoint" />
            <mxPoint x="650" y="260" as="targetPoint" />
          </mxGeometry>
        </mxCell>
        <mxCell id="ObYPDV4feWsiStuhIS4X-5" value="" style="endArrow=ERoneToMany;html=1;rounded=0;exitX=0.5;exitY=1;exitDx=0;exitDy=0;entryX=0.5;entryY=0;entryDx=0;entryDy=0;startArrow=none;startFill=0;targetPerimeterSpacing=13;endFill=0;endSize=14;" parent="1" source="ObYPDV4feWsiStuhIS4X-3" target="HHtx3UaV1CVex7Vy0g1h-39" edge="1">
          <mxGeometry relative="1" as="geometry">
            <mxPoint x="660" y="330" as="sourcePoint" />
            <mxPoint x="660" y="410" as="targetPoint" />
          </mxGeometry>
        </mxCell>
        <mxCell id="ObYPDV4feWsiStuhIS4X-7" value="" style="endArrow=none;html=1;rounded=0;exitX=0.5;exitY=0;exitDx=0;exitDy=0;entryX=0.75;entryY=1;entryDx=0;entryDy=0;" parent="1" source="ObYPDV4feWsiStuhIS4X-31" target="ObYPDV4feWsiStuhIS4X-2" edge="1">
          <mxGeometry relative="1" as="geometry">
            <mxPoint x="711" y="230" as="sourcePoint" />
            <mxPoint x="425" y="131" as="targetPoint" />
          </mxGeometry>
        </mxCell>
        <mxCell id="ObYPDV4feWsiStuhIS4X-8" style="edgeStyle=orthogonalEdgeStyle;rounded=0;orthogonalLoop=1;jettySize=auto;html=1;entryX=1;entryY=0.5;entryDx=0;entryDy=0;endArrow=ERoneToMany;endFill=0;startSize=14;targetPerimeterSpacing=14;startArrow=ERone;startFill=0;endSize=14;" parent="1" source="ObYPDV4feWsiStuhIS4X-2" target="ObYPDV4feWsiStuhIS4X-2" edge="1">
          <mxGeometry relative="1" as="geometry">
            <Array as="points">
              <mxPoint x="650" y="60" />
              <mxPoint x="800" y="60" />
              <mxPoint x="800" y="140" />
            </Array>
          </mxGeometry>
        </mxCell>
        <mxCell id="ObYPDV4feWsiStuhIS4X-9" value="&lt;p&gt;&lt;font face=&quot;arial&quot; style=&quot;font-size: 14px;&quot;&gt;Supervise&lt;/font&gt;&lt;/p&gt;" style="text;html=1;align=center;verticalAlign=middle;resizable=0;points=[];autosize=1;strokeColor=none;fillColor=none;" parent="1" vertex="1">
          <mxGeometry x="680" y="50" width="90" height="50" as="geometry" />
        </mxCell>
        <mxCell id="ObYPDV4feWsiStuhIS4X-10" value="&lt;span style=&quot;font-size: 14px;&quot;&gt;Address&lt;/span&gt;" style="ellipse;whiteSpace=wrap;html=1;align=center;" parent="1" vertex="1">
          <mxGeometry x="740" y="150" width="100" height="40" as="geometry" />
        </mxCell>
        <mxCell id="ObYPDV4feWsiStuhIS4X-11" value="" style="endArrow=none;html=1;rounded=0;exitX=0;exitY=0.5;exitDx=0;exitDy=0;entryX=1;entryY=0.75;entryDx=0;entryDy=0;" parent="1" source="ObYPDV4feWsiStuhIS4X-10" target="ObYPDV4feWsiStuhIS4X-2" edge="1">
          <mxGeometry relative="1" as="geometry">
            <mxPoint x="740" y="240" as="sourcePoint" />
            <mxPoint x="690" y="170" as="targetPoint" />
          </mxGeometry>
        </mxCell>
        <mxCell id="ObYPDV4feWsiStuhIS4X-12" value="&lt;span style=&quot;font-size: 14px;&quot;&gt;Appointment Date&lt;/span&gt;" style="ellipse;whiteSpace=wrap;html=1;align=center;" parent="1" vertex="1">
          <mxGeometry x="540" y="210" width="100" height="60" as="geometry" />
        </mxCell>
        <mxCell id="ObYPDV4feWsiStuhIS4X-13" value="" style="endArrow=none;html=1;rounded=0;exitX=0.5;exitY=0;exitDx=0;exitDy=0;entryX=0.25;entryY=1;entryDx=0;entryDy=0;" parent="1" source="ObYPDV4feWsiStuhIS4X-12" target="ObYPDV4feWsiStuhIS4X-2" edge="1">
          <mxGeometry relative="1" as="geometry">
            <mxPoint x="740" y="240" as="sourcePoint" />
            <mxPoint x="690" y="170" as="targetPoint" />
          </mxGeometry>
        </mxCell>
        <mxCell id="ObYPDV4feWsiStuhIS4X-14" value="&lt;span style=&quot;font-size: 14px;&quot;&gt;Contact_No&lt;/span&gt;" style="ellipse;whiteSpace=wrap;html=1;align=center;" parent="1" vertex="1">
          <mxGeometry x="450" y="170" width="100" height="40" as="geometry" />
        </mxCell>
        <mxCell id="ObYPDV4feWsiStuhIS4X-15" value="" style="endArrow=none;html=1;rounded=0;exitX=1;exitY=0;exitDx=0;exitDy=0;entryX=0;entryY=1;entryDx=0;entryDy=0;" parent="1" source="ObYPDV4feWsiStuhIS4X-14" target="ObYPDV4feWsiStuhIS4X-2" edge="1">
          <mxGeometry relative="1" as="geometry">
            <mxPoint x="750" y="200" as="sourcePoint" />
            <mxPoint x="720" y="170" as="targetPoint" />
          </mxGeometry>
        </mxCell>
        <mxCell id="ObYPDV4feWsiStuhIS4X-16" value="&lt;span style=&quot;font-size: 15px;&quot;&gt;Login&lt;/span&gt;" style="shape=rhombus;perimeter=rhombusPerimeter;whiteSpace=wrap;html=1;align=center;" parent="1" vertex="1">
          <mxGeometry x="365" y="110" width="120" height="60" as="geometry" />
        </mxCell>
        <mxCell id="ObYPDV4feWsiStuhIS4X-17" value="" style="endArrow=none;html=1;rounded=0;exitX=0;exitY=0.5;exitDx=0;exitDy=0;entryX=1;entryY=0.5;entryDx=0;entryDy=0;startArrow=ERone;startFill=0;targetPerimeterSpacing=13;startSize=14;" parent="1" source="ObYPDV4feWsiStuhIS4X-2" target="ObYPDV4feWsiStuhIS4X-16" edge="1">
          <mxGeometry relative="1" as="geometry">
            <mxPoint x="271" y="461" as="sourcePoint" />
            <mxPoint x="375" y="461" as="targetPoint" />
          </mxGeometry>
        </mxCell>
        <mxCell id="ObYPDV4feWsiStuhIS4X-18" value="&lt;h3 style=&quot;border-color: var(--border-color);&quot;&gt;&lt;font style=&quot;border-color: var(--border-color); font-size: 15px;&quot; face=&quot;arial&quot;&gt;Staff_Login&lt;/font&gt;&lt;/h3&gt;" style="whiteSpace=wrap;html=1;align=center;" parent="1" vertex="1">
          <mxGeometry x="141" y="120" width="120" height="40" as="geometry" />
        </mxCell>
        <mxCell id="ObYPDV4feWsiStuhIS4X-19" value="" style="endArrow=none;html=1;rounded=0;exitX=1;exitY=0.5;exitDx=0;exitDy=0;entryX=0;entryY=0.5;entryDx=0;entryDy=0;startArrow=ERone;startFill=0;targetPerimeterSpacing=13;startSize=14;" parent="1" source="ObYPDV4feWsiStuhIS4X-18" target="ObYPDV4feWsiStuhIS4X-16" edge="1">
          <mxGeometry relative="1" as="geometry">
            <mxPoint x="600" y="150" as="sourcePoint" />
            <mxPoint x="495" y="150" as="targetPoint" />
          </mxGeometry>
        </mxCell>
        <mxCell id="ObYPDV4feWsiStuhIS4X-20" value="&lt;span style=&quot;font-size: 14px;&quot;&gt;Gender&lt;/span&gt;" style="ellipse;whiteSpace=wrap;html=1;align=center;" parent="1" vertex="1">
          <mxGeometry x="470" y="30" width="100" height="40" as="geometry" />
        </mxCell>
        <mxCell id="ObYPDV4feWsiStuhIS4X-21" value="" style="endArrow=none;html=1;rounded=0;exitX=0;exitY=0;exitDx=0;exitDy=0;entryX=1;entryY=1;entryDx=0;entryDy=0;" parent="1" source="ObYPDV4feWsiStuhIS4X-2" target="ObYPDV4feWsiStuhIS4X-20" edge="1">
          <mxGeometry relative="1" as="geometry">
            <mxPoint x="570" y="200" as="sourcePoint" />
            <mxPoint x="600" y="170" as="targetPoint" />
          </mxGeometry>
        </mxCell>
        <mxCell id="ObYPDV4feWsiStuhIS4X-22" value="&lt;span style=&quot;font-size: 14px;&quot;&gt;DOB&lt;/span&gt;" style="ellipse;whiteSpace=wrap;html=1;align=center;" parent="1" vertex="1">
          <mxGeometry x="570" y="10" width="100" height="40" as="geometry" />
        </mxCell>
        <mxCell id="ObYPDV4feWsiStuhIS4X-23" value="" style="endArrow=none;html=1;rounded=0;exitX=0.25;exitY=0;exitDx=0;exitDy=0;entryX=0.5;entryY=1;entryDx=0;entryDy=0;" parent="1" source="ObYPDV4feWsiStuhIS4X-2" target="ObYPDV4feWsiStuhIS4X-22" edge="1">
          <mxGeometry relative="1" as="geometry">
            <mxPoint x="600" y="130" as="sourcePoint" />
            <mxPoint x="570" y="100" as="targetPoint" />
          </mxGeometry>
        </mxCell>
        <mxCell id="ObYPDV4feWsiStuhIS4X-26" value="&lt;span style=&quot;font-size: 14px;&quot;&gt;Name&lt;/span&gt;" style="ellipse;whiteSpace=wrap;html=1;align=center;" parent="1" vertex="1">
          <mxGeometry x="740" y="199" width="100" height="40" as="geometry" />
        </mxCell>
        <mxCell id="ObYPDV4feWsiStuhIS4X-27" value="" style="endArrow=none;html=1;rounded=0;exitX=0;exitY=0;exitDx=0;exitDy=0;entryX=1;entryY=1;entryDx=0;entryDy=0;" parent="1" source="ObYPDV4feWsiStuhIS4X-26" target="ObYPDV4feWsiStuhIS4X-2" edge="1">
          <mxGeometry relative="1" as="geometry">
            <mxPoint x="750" y="180" as="sourcePoint" />
            <mxPoint x="720" y="160" as="targetPoint" />
          </mxGeometry>
        </mxCell>
        <mxCell id="ObYPDV4feWsiStuhIS4X-29" value="" style="endArrow=none;html=1;rounded=0;exitX=1;exitY=0.5;exitDx=0;exitDy=0;" parent="1" source="ObYPDV4feWsiStuhIS4X-30" edge="1">
          <mxGeometry relative="1" as="geometry">
            <mxPoint x="550" y="170" as="sourcePoint" />
            <mxPoint x="590" y="130" as="targetPoint" />
          </mxGeometry>
        </mxCell>
        <mxCell id="ObYPDV4feWsiStuhIS4X-30" value="&lt;span style=&quot;font-size: 14px;&quot;&gt;Email&lt;/span&gt;" style="ellipse;whiteSpace=wrap;html=1;align=center;" parent="1" vertex="1">
          <mxGeometry x="450" y="81" width="100" height="40" as="geometry" />
        </mxCell>
        <mxCell id="ObYPDV4feWsiStuhIS4X-31" value="&lt;font style=&quot;font-size: 14px;&quot;&gt;Staff_ID&lt;/font&gt;" style="ellipse;whiteSpace=wrap;html=1;align=center;fontStyle=4;" parent="1" vertex="1">
          <mxGeometry x="661" y="230" width="100" height="40" as="geometry" />
        </mxCell>
        <mxCell id="ObYPDV4feWsiStuhIS4X-32" value="&lt;span style=&quot;border-bottom: 1px dotted&quot;&gt;&lt;font style=&quot;font-size: 14px;&quot;&gt;Staff_ID&lt;/font&gt;&lt;/span&gt;" style="ellipse;whiteSpace=wrap;html=1;align=center;" parent="1" vertex="1">
          <mxGeometry x="280" y="41" width="100" height="40" as="geometry" />
        </mxCell>
        <mxCell id="ObYPDV4feWsiStuhIS4X-33" value="" style="endArrow=none;html=1;rounded=0;exitX=1;exitY=0;exitDx=0;exitDy=0;entryX=0.5;entryY=1;entryDx=0;entryDy=0;" parent="1" source="ObYPDV4feWsiStuhIS4X-18" target="ObYPDV4feWsiStuhIS4X-32" edge="1">
          <mxGeometry relative="1" as="geometry">
            <mxPoint x="560" y="111" as="sourcePoint" />
            <mxPoint x="600" y="140" as="targetPoint" />
          </mxGeometry>
        </mxCell>
        <mxCell id="ObYPDV4feWsiStuhIS4X-34" value="&lt;font style=&quot;font-size: 14px;&quot;&gt;Password&lt;/font&gt;" style="ellipse;whiteSpace=wrap;html=1;align=center;" parent="1" vertex="1">
          <mxGeometry x="151" y="30" width="100" height="40" as="geometry" />
        </mxCell>
        <mxCell id="ObYPDV4feWsiStuhIS4X-35" value="" style="endArrow=none;html=1;rounded=0;exitX=0.5;exitY=0;exitDx=0;exitDy=0;entryX=0.5;entryY=1;entryDx=0;entryDy=0;" parent="1" source="ObYPDV4feWsiStuhIS4X-18" target="ObYPDV4feWsiStuhIS4X-34" edge="1">
          <mxGeometry relative="1" as="geometry">
            <mxPoint x="271" y="130" as="sourcePoint" />
            <mxPoint x="340" y="91" as="targetPoint" />
          </mxGeometry>
        </mxCell>
        <mxCell id="ObYPDV4feWsiStuhIS4X-36" value="&lt;font style=&quot;font-size: 14px;&quot;&gt;User_ID&lt;/font&gt;" style="ellipse;whiteSpace=wrap;html=1;align=center;fontStyle=4;" parent="1" vertex="1">
          <mxGeometry x="21" y="41" width="100" height="40" as="geometry" />
        </mxCell>
        <mxCell id="ObYPDV4feWsiStuhIS4X-37" value="" style="endArrow=none;html=1;rounded=0;entryX=0.5;entryY=1;entryDx=0;entryDy=0;exitX=0;exitY=0;exitDx=0;exitDy=0;" parent="1" source="ObYPDV4feWsiStuhIS4X-18" target="ObYPDV4feWsiStuhIS4X-36" edge="1">
          <mxGeometry width="50" height="50" relative="1" as="geometry">
            <mxPoint x="140" y="120" as="sourcePoint" />
            <mxPoint x="81" y="82" as="targetPoint" />
          </mxGeometry>
        </mxCell>
        <mxCell id="ObYPDV4feWsiStuhIS4X-38" value="&lt;span style=&quot;border-bottom: 1px dotted&quot;&gt;&lt;font style=&quot;font-size: 14px;&quot;&gt;Staff_ID&lt;/font&gt;&lt;/span&gt;" style="ellipse;whiteSpace=wrap;html=1;align=center;" parent="1" vertex="1">
          <mxGeometry x="740" y="431" width="100" height="40" as="geometry" />
        </mxCell>
        <mxCell id="ObYPDV4feWsiStuhIS4X-39" value="" style="endArrow=none;html=1;rounded=0;exitX=0;exitY=0.5;exitDx=0;exitDy=0;entryX=1;entryY=0.5;entryDx=0;entryDy=0;" parent="1" source="ObYPDV4feWsiStuhIS4X-38" target="HHtx3UaV1CVex7Vy0g1h-39" edge="1">
          <mxGeometry relative="1" as="geometry">
            <mxPoint x="765" y="414" as="sourcePoint" />
            <mxPoint x="720" y="441" as="targetPoint" />
          </mxGeometry>
        </mxCell>
        <mxCell id="ObYPDV4feWsiStuhIS4X-40" value="&lt;font style=&quot;font-size: 14px;&quot;&gt;Recently_ Login&lt;/font&gt;" style="ellipse;whiteSpace=wrap;html=1;align=center;" parent="1" vertex="1">
          <mxGeometry y="120" width="120" height="40" as="geometry" />
        </mxCell>
        <mxCell id="ObYPDV4feWsiStuhIS4X-41" value="" style="endArrow=none;html=1;rounded=0;entryX=1;entryY=0.5;entryDx=0;entryDy=0;exitX=0;exitY=0.5;exitDx=0;exitDy=0;" parent="1" source="ObYPDV4feWsiStuhIS4X-18" target="ObYPDV4feWsiStuhIS4X-40" edge="1">
          <mxGeometry relative="1" as="geometry">
            <mxPoint x="140" y="140" as="sourcePoint" />
            <mxPoint x="211" y="80" as="targetPoint" />
          </mxGeometry>
        </mxCell>
        <mxCell id="ObYPDV4feWsiStuhIS4X-44" value="&lt;span style=&quot;font-size: 14px;&quot;&gt;Payment_Method&lt;/span&gt;" style="ellipse;whiteSpace=wrap;html=1;align=center;" parent="1" vertex="1">
          <mxGeometry x="132" y="670" width="138" height="40" as="geometry" />
        </mxCell>
        <mxCell id="ObYPDV4feWsiStuhIS4X-45" value="" style="endArrow=none;html=1;rounded=0;exitX=0.5;exitY=0;exitDx=0;exitDy=0;entryX=0.5;entryY=1;entryDx=0;entryDy=0;" parent="1" source="HHtx3UaV1CVex7Vy0g1h-95" target="ObYPDV4feWsiStuhIS4X-44" edge="1">
          <mxGeometry width="50" height="50" relative="1" as="geometry">
            <mxPoint x="151" y="769" as="sourcePoint" />
            <mxPoint x="81" y="739" as="targetPoint" />
          </mxGeometry>
        </mxCell>
        <mxCell id="ObYPDV4feWsiStuhIS4X-46" value="&lt;span style=&quot;font-size: 15px;&quot;&gt;Login&lt;/span&gt;" style="shape=rhombus;perimeter=rhombusPerimeter;whiteSpace=wrap;html=1;align=center;" parent="1" vertex="1">
          <mxGeometry x="141" y="361" width="120" height="60" as="geometry" />
        </mxCell>
        <mxCell id="ObYPDV4feWsiStuhIS4X-47" value="&lt;h3 style=&quot;border-color: var(--border-color);&quot;&gt;&lt;font style=&quot;border-color: var(--border-color); font-size: 15px;&quot; face=&quot;arial&quot;&gt;Customer&lt;/font&gt;&lt;/h3&gt;" style="whiteSpace=wrap;html=1;align=center;" parent="1" vertex="1">
          <mxGeometry x="141" y="250" width="120" height="40" as="geometry" />
        </mxCell>
        <mxCell id="ObYPDV4feWsiStuhIS4X-48" value="" style="endArrow=none;html=1;rounded=0;exitX=0.5;exitY=1;exitDx=0;exitDy=0;entryX=0.5;entryY=0;entryDx=0;entryDy=0;startArrow=ERone;startFill=0;targetPerimeterSpacing=13;startSize=14;" parent="1" source="ObYPDV4feWsiStuhIS4X-47" target="ObYPDV4feWsiStuhIS4X-46" edge="1">
          <mxGeometry relative="1" as="geometry">
            <mxPoint x="271" y="150" as="sourcePoint" />
            <mxPoint x="375" y="150" as="targetPoint" />
          </mxGeometry>
        </mxCell>
        <mxCell id="ObYPDV4feWsiStuhIS4X-49" value="" style="endArrow=none;html=1;rounded=0;entryX=0.5;entryY=1;entryDx=0;entryDy=0;startArrow=ERone;startFill=0;targetPerimeterSpacing=13;startSize=14;exitX=0.5;exitY=0;exitDx=0;exitDy=0;" parent="1" source="HHtx3UaV1CVex7Vy0g1h-28" target="ObYPDV4feWsiStuhIS4X-46" edge="1">
          <mxGeometry relative="1" as="geometry">
            <mxPoint x="211" y="300" as="sourcePoint" />
            <mxPoint x="211" y="371" as="targetPoint" />
          </mxGeometry>
        </mxCell>
        <mxCell id="ObYPDV4feWsiStuhIS4X-50" value="&lt;span style=&quot;border-bottom: 1px dotted&quot;&gt;&lt;font style=&quot;font-size: 14px;&quot;&gt;Customer_ID&lt;/font&gt;&lt;/span&gt;" style="ellipse;whiteSpace=wrap;html=1;align=center;" parent="1" vertex="1">
          <mxGeometry x="290" y="250" width="100" height="40" as="geometry" />
        </mxCell>
        <mxCell id="ObYPDV4feWsiStuhIS4X-51" value="" style="endArrow=none;html=1;rounded=0;exitX=1;exitY=0.5;exitDx=0;exitDy=0;entryX=0;entryY=0.5;entryDx=0;entryDy=0;" parent="1" source="ObYPDV4feWsiStuhIS4X-47" target="ObYPDV4feWsiStuhIS4X-50" edge="1">
          <mxGeometry relative="1" as="geometry">
            <mxPoint x="261" y="250" as="sourcePoint" />
            <mxPoint x="600" y="270" as="targetPoint" />
          </mxGeometry>
        </mxCell>
        <mxCell id="ObYPDV4feWsiStuhIS4X-52" value="&lt;font style=&quot;font-size: 14px;&quot;&gt;Password&lt;/font&gt;" style="ellipse;whiteSpace=wrap;html=1;align=center;" parent="1" vertex="1">
          <mxGeometry x="151" y="190" width="100" height="40" as="geometry" />
        </mxCell>
        <mxCell id="ObYPDV4feWsiStuhIS4X-53" value="" style="endArrow=none;html=1;rounded=0;exitX=0.5;exitY=0;exitDx=0;exitDy=0;entryX=0.5;entryY=1;entryDx=0;entryDy=0;" parent="1" target="ObYPDV4feWsiStuhIS4X-52" edge="1">
          <mxGeometry relative="1" as="geometry">
            <mxPoint x="201" y="250" as="sourcePoint" />
            <mxPoint x="340" y="221" as="targetPoint" />
          </mxGeometry>
        </mxCell>
        <mxCell id="ObYPDV4feWsiStuhIS4X-54" value="&lt;font style=&quot;font-size: 14px;&quot;&gt;User_ID&lt;/font&gt;" style="ellipse;whiteSpace=wrap;html=1;align=center;fontStyle=4;" parent="1" vertex="1">
          <mxGeometry x="10" y="250" width="100" height="40" as="geometry" />
        </mxCell>
        <mxCell id="ObYPDV4feWsiStuhIS4X-55" value="" style="endArrow=none;html=1;rounded=0;entryX=1;entryY=0.5;entryDx=0;entryDy=0;exitX=0;exitY=0.5;exitDx=0;exitDy=0;" parent="1" source="ObYPDV4feWsiStuhIS4X-47" target="ObYPDV4feWsiStuhIS4X-54" edge="1">
          <mxGeometry width="50" height="50" relative="1" as="geometry">
            <mxPoint x="141" y="250" as="sourcePoint" />
            <mxPoint x="81" y="212" as="targetPoint" />
          </mxGeometry>
        </mxCell>
        <mxCell id="ObYPDV4feWsiStuhIS4X-56" value="&lt;font style=&quot;font-size: 14px;&quot;&gt;Recently_Login&lt;/font&gt;" style="ellipse;whiteSpace=wrap;html=1;align=center;" parent="1" vertex="1">
          <mxGeometry x="1" y="320" width="120" height="50" as="geometry" />
        </mxCell>
        <mxCell id="ObYPDV4feWsiStuhIS4X-57" value="" style="endArrow=none;html=1;rounded=0;entryX=1;entryY=0;entryDx=0;entryDy=0;exitX=0;exitY=1;exitDx=0;exitDy=0;" parent="1" source="ObYPDV4feWsiStuhIS4X-47" target="ObYPDV4feWsiStuhIS4X-56" edge="1">
          <mxGeometry relative="1" as="geometry">
            <mxPoint x="141" y="270" as="sourcePoint" />
            <mxPoint x="211" y="210" as="targetPoint" />
          </mxGeometry>
        </mxCell>
      </root>
    </mxGraphModel>
  </diagram>
</mxfile>
